<svg width="40" height="41" viewBox="0 0 40 41" fill="none" xmlns="http://www.w3.org/2000/svg">
<path fill-rule="evenodd" clip-rule="evenodd" d="M28.4826 4.19912C28.9707 3.71097 29.7622 3.71097 30.2503 4.19912L36.3087 10.2575C36.7968 10.7456 36.7968 11.5371 36.3087 12.0252C35.8205 12.5134 35.0291 12.5134 34.5409 12.0252L32.3662 9.85055L28.9165 13.3003L34.7431 19.1269C35.2313 19.615 35.2313 20.4065 34.7431 20.8947C34.255 21.3828 33.4635 21.3828 32.9753 20.8947L31.2436 19.1629L16.657 33.7495C16.6376 33.7689 16.6177 33.7876 16.5973 33.8054C16.5625 33.8517 16.524 33.896 16.4819 33.9381C15.9937 34.4263 15.2023 34.4263 14.7141 33.9381L11.1051 30.3292L5.46762 35.9667C4.97947 36.4548 4.18801 36.4548 3.69986 35.9667C3.2117 35.4785 3.2117 34.6871 3.69986 34.1989L9.33736 28.5614L6.06099 25.285L6.04705 25.2713C5.79436 25.0186 5.67247 24.6847 5.68138 24.3536C5.68964 24.045 5.81153 23.7388 6.04705 23.5033L6.06056 23.49L13.8543 15.6963L13.8732 15.677L13.8925 15.6581L20.8156 8.73495L19.0909 7.01019C18.6027 6.52203 18.6027 5.73057 19.0909 5.24242C19.579 4.75426 20.3705 4.75426 20.8586 5.24242L27.1487 11.5325L30.5984 8.08278L28.4826 5.96689C27.9944 5.47874 27.9944 4.68728 28.4826 4.19912ZM29.4758 17.3951L22.5834 10.5027L20.4382 12.6479L23.0042 15.2139C23.4923 15.702 23.4923 16.4935 23.0042 16.9816C22.516 17.4698 21.7246 17.4698 21.2364 16.9816L18.6704 14.4157L16.525 16.5611L19.0906 19.1266C19.5787 19.6148 19.5787 20.4062 19.0906 20.8944C18.6024 21.3826 17.811 21.3826 17.3228 20.8944L14.7573 18.3288L12.6119 20.4742L15.1778 23.0402C15.666 23.5284 15.666 24.3198 15.1778 24.808C14.6897 25.2961 13.8982 25.2961 13.4101 24.808L10.8441 22.242L8.6988 24.3873L15.5912 31.2797L29.4758 17.3951Z" fill="#FF9F59"/>
</svg>
