<svg width="28" height="27" viewBox="0 0 28 27" fill="none" xmlns="http://www.w3.org/2000/svg">
<path fill-rule="evenodd" clip-rule="evenodd" d="M20.786 0.959885C21.1766 0.569361 21.8097 0.569361 22.2003 0.959885L27.0469 5.80657C27.4375 6.19709 27.4375 6.83026 27.0469 7.22078C26.6564 7.6113 26.0232 7.6113 25.6327 7.22078L23.893 5.48103L21.1332 8.2408L25.7945 12.9021C26.185 13.2926 26.185 13.9258 25.7945 14.3163C25.404 14.7068 24.7708 14.7068 24.3803 14.3163L22.9949 12.9309L11.3256 24.6002C11.31 24.6157 11.2941 24.6306 11.2779 24.6449C11.25 24.6819 11.2192 24.7174 11.1855 24.7511C10.795 25.1416 10.1618 25.1416 9.77129 24.7511L6.8841 21.8639L2.3741 26.3739C1.98357 26.7645 1.35041 26.7645 0.959885 26.3739C0.569361 25.9834 0.569361 25.3502 0.959885 24.9597L5.46989 20.4497L2.8488 17.8286L2.83764 17.8176C2.63549 17.6155 2.53798 17.3483 2.54511 17.0834C2.55171 16.8366 2.64922 16.5917 2.83764 16.4032L2.84845 16.3926L9.08342 10.1576L9.09855 10.1422L9.114 10.1271L14.6525 4.58854L13.2727 3.20873C12.8822 2.81821 12.8822 2.18505 13.2727 1.79452C13.6632 1.404 14.2964 1.404 14.6869 1.79452L19.719 6.82659L22.4788 4.06681L20.786 2.3741C20.3955 1.98357 20.3955 1.35041 20.786 0.959885ZM21.5806 11.5167L16.0667 6.00276L14.3506 7.71891L16.4033 9.77168C16.7939 10.1622 16.7939 10.7954 16.4033 11.1859C16.0128 11.5764 15.3796 11.5764 14.9891 11.1859L12.9363 9.13313L11.22 10.8494L13.2725 12.9019C13.663 13.2924 13.663 13.9256 13.2725 14.3161C12.882 14.7066 12.2488 14.7066 11.8583 14.3161L9.80581 12.2637L8.08949 13.98L10.1423 16.0328C10.5328 16.4233 10.5328 17.0564 10.1423 17.447C9.75174 17.8375 9.11858 17.8375 8.72805 17.447L6.67528 15.3942L4.95904 17.1104L10.473 22.6244L21.5806 11.5167Z" fill="#FF9F59"/>
</svg>
