<svg width="20" height="20" viewBox="0 0 20 20" fill="none" xmlns="http://www.w3.org/2000/svg">
<path fill-rule="evenodd" clip-rule="evenodd" d="M9.14657 2.58197C9.66096 2.00586 9.99984 1.66699 9.99984 1.66699C9.99984 1.66699 10.3387 2.00586 10.8531 2.58197C12.4729 4.39612 15.8332 8.5627 15.8332 11.9081C15.8332 14.9966 13.2214 17.5003 9.99984 17.5003C6.77826 17.5003 4.1665 14.9964 4.1665 11.9081C4.1665 8.5627 7.52677 4.39612 9.14657 2.58197ZM9.99984 3.50348C9.47473 4.09601 8.78341 4.92009 8.0948 5.86886C7.39349 6.83513 6.71196 7.90758 6.20979 8.97891C5.70167 10.0629 5.4165 11.0634 5.4165 11.9081C5.4165 14.2569 7.41838 16.2503 9.99984 16.2503C12.5813 16.2503 14.5832 14.257 14.5832 11.9081C14.5832 11.0634 14.298 10.0629 13.7899 8.97891C13.2877 7.90758 12.6062 6.83513 11.9049 5.86886C11.2163 4.92009 10.5249 4.09601 9.99984 3.50348Z" fill="black"/>
<path d="M8.91899 12.7401C9.57393 13.3869 9.84272 14.1766 9.51933 14.5041C9.19594 14.8316 8.40284 14.5727 7.7479 13.926C7.09295 13.2792 6.82417 12.4894 7.14756 12.1619C7.47094 11.8345 8.26404 12.0933 8.91899 12.7401Z" fill="black"/>
</svg>
