<svg width="359" height="394" viewBox="0 0 359 394" fill="none" xmlns="http://www.w3.org/2000/svg">
<g clip-path="url(#clip0_7412_49724)">
<path d="M0 32C0 14.3269 14.3269 0 32 0H327C344.673 0 359 14.3269 359 32V362C359 379.673 344.673 394 327 394H32C14.3269 394 0 379.673 0 362V32Z" fill="#F1F1FA"/>
<g filter="url(#filter0_f_7412_49724)">
<path d="M53.0506 197.254C53.0506 170.208 271.036 125.883 380.029 107.101L643.975 47V294.918L510.032 381.314C494.274 453.937 455.667 599.182 427.303 599.182C391.847 599.182 116.083 621.72 88.5061 599.182C60.9296 576.644 13.6556 392.583 53.0506 197.254Z" fill="#CBC0F8"/>
</g>
</g>
<defs>
<filter id="filter0_f_7412_49724" x="-212" y="-203" width="1105.97" height="1062.2" filterUnits="userSpaceOnUse" color-interpolation-filters="sRGB">
<feFlood flood-opacity="0" result="BackgroundImageFix"/>
<feBlend mode="normal" in="SourceGraphic" in2="BackgroundImageFix" result="shape"/>
<feGaussianBlur stdDeviation="125" result="effect1_foregroundBlur_7412_49724"/>
</filter>
<clipPath id="clip0_7412_49724">
<path d="M0 32C0 14.3269 14.3269 0 32 0H327C344.673 0 359 14.3269 359 32V362C359 379.673 344.673 394 327 394H32C14.3269 394 0 379.673 0 362V32Z" fill="white"/>
</clipPath>
</defs>
</svg>
