<svg width="8" height="14" viewBox="0 0 8 14" fill="none" xmlns="http://www.w3.org/2000/svg">
<path d="M4.58687 6.64624L4.23192 7.00026L4.58687 7.35428L7.1202 9.88094L7.12119 9.88192C7.13682 9.89742 7.14922 9.91585 7.15768 9.93616C7.16614 9.95647 7.17049 9.97825 7.17049 10.0003C7.17049 10.0223 7.16614 10.044 7.15768 10.0644C7.14922 10.0847 7.13682 10.1031 7.12119 10.1186L7.11974 10.12L4.12489 13.1149C4.10962 13.1289 4.09187 13.1399 4.07255 13.1474L4.06175 13.1516L4.05116 13.1563C4.03504 13.1634 4.0176 13.1671 3.99996 13.1671C3.98233 13.1671 3.96489 13.1634 3.94876 13.1563L3.94881 13.1562L3.93839 13.1518C3.89767 13.1349 3.8653 13.1026 3.84839 13.0618L3.84841 13.0618L3.84659 13.0575C3.83831 13.0381 3.8338 13.0173 3.83329 12.9962V8.60692V7.39676L2.97911 8.254L1.11974 10.12C1.11967 10.1201 1.1196 10.1202 1.11954 10.1202C1.10385 10.1359 1.08525 10.1483 1.06479 10.1568L1.25613 10.6187L1.06478 10.1568C1.04423 10.1653 1.02221 10.1697 0.999961 10.1697C0.977714 10.1697 0.955688 10.1653 0.93514 10.1568L0.744323 10.6174L0.935135 10.1568C0.914586 10.1482 0.895913 10.1358 0.880182 10.12L0.526628 10.4736L0.88018 10.12C0.864451 10.1043 0.851974 10.0856 0.843461 10.0651L0.382797 10.2559L0.84346 10.0651C0.834948 10.0445 0.830566 10.0225 0.830566 10.0003C0.830566 9.97801 0.834948 9.95599 0.84346 9.93543L0.382797 9.74462L0.843461 9.93543C0.851942 9.91496 0.864357 9.89635 0.88 9.88066C0.88006 9.8806 0.88012 9.88054 0.88018 9.88048L3.41305 7.35428L3.768 7.00026L3.41305 6.64624L0.880181 4.12004C0.880132 4.11999 0.880083 4.11994 0.880033 4.11989C0.864373 4.10419 0.851947 4.08557 0.843461 4.06508C0.834948 4.04453 0.830566 4.0225 0.830566 4.00026C0.830566 3.97801 0.834948 3.95599 0.843461 3.93543C0.851974 3.91488 0.864452 3.89621 0.88018 3.88048C0.89591 3.86475 0.914584 3.85227 0.935136 3.84376C0.955689 3.83524 0.977717 3.83086 0.999961 3.83086C1.02221 3.83086 1.04423 3.83524 1.06478 3.84376C1.08525 3.85223 1.10386 3.86464 1.11955 3.88028C1.11961 3.88035 1.11968 3.88041 1.11974 3.88048L2.97911 5.74651L3.83329 6.60376V5.39359V1.00429C3.8338 0.983197 3.83831 0.962387 3.84659 0.942968L3.84661 0.942976L3.84839 0.938687C3.86518 0.898256 3.8972 0.866066 3.93751 0.849055C3.97787 0.832748 4.02301 0.832868 4.06329 0.849416L4.06326 0.849508L4.07254 0.853108C4.09187 0.860601 4.10962 0.87163 4.12488 0.885619L7.11974 3.88048L7.11974 3.88048L7.12119 3.88192C7.13682 3.89742 7.14922 3.91585 7.15768 3.93616C7.16614 3.95647 7.17049 3.97825 7.17049 4.00026C7.17049 4.02226 7.16614 4.04404 7.15768 4.06435C7.14922 4.08466 7.13682 4.10309 7.12119 4.11859L7.12021 4.11957L4.58687 6.64624ZM5.02018 2.25337L4.16663 1.39982V2.60692V5.39359V6.6007L5.02018 5.74714L6.41351 4.35381L6.76707 4.00026L6.41351 3.6467L5.02018 2.25337ZM4.16663 11.3936V12.6007L5.02018 11.7471L6.41351 10.3538L6.76707 10.0003L6.41351 9.6467L5.02018 8.25337L4.16663 7.39982V8.60692V11.3936Z" fill="black" stroke="black"/>
</svg>
