<svg width="16" height="16" viewBox="0 0 16 16" fill="none" xmlns="http://www.w3.org/2000/svg">
<path fill-rule="evenodd" clip-rule="evenodd" d="M11.1996 1.59961C11.6414 1.59961 11.9996 1.95778 11.9996 2.39961V3.19961C13.3251 3.19961 14.3996 4.27413 14.3996 5.59961V11.9996C14.3996 13.3251 13.3251 14.3996 11.9996 14.3996H3.99961C2.67413 14.3996 1.59961 13.3251 1.59961 11.9996V5.59961C1.59961 4.27413 2.67413 3.19961 3.99961 3.19961V2.39961C3.99961 1.95778 4.35778 1.59961 4.79961 1.59961C5.24144 1.59961 5.59961 1.95778 5.59961 2.39961V3.19961H10.3996V2.39961C10.3996 1.95778 10.7578 1.59961 11.1996 1.59961ZM12.7996 7.99961H3.19961V11.9996C3.19961 12.4414 3.55778 12.7996 3.99961 12.7996H11.9996C12.4414 12.7996 12.7996 12.4414 12.7996 11.9996V7.99961ZM11.9996 4.79961H3.99961C3.55778 4.79961 3.19961 5.15778 3.19961 5.59961V6.39961H12.7996V5.59961C12.7996 5.15778 12.4414 4.79961 11.9996 4.79961Z" fill="black"/>
</svg>
