<svg width="28" height="28" viewBox="0 0 28 28" fill="none" xmlns="http://www.w3.org/2000/svg">
<path d="M0.621948 13.9997C0.621948 16.6367 1.40155 19.2146 2.86216 21.4073C4.32279 23.5999 6.39882 25.3089 8.82775 26.3181C11.2566 27.3272 13.9294 27.5913 16.5079 27.0768C19.0864 26.5623 21.4549 25.2925 23.314 23.4278C25.173 21.5631 26.439 19.1873 26.952 16.6009C27.4648 14.0145 27.2016 11.3335 26.1955 8.89727C25.1894 6.46087 23.4856 4.37848 21.2996 2.91341C19.1137 1.44834 16.5437 0.66634 13.9146 0.66634C12.169 0.66634 10.4405 1.01127 8.82775 1.68127C7.215 2.35127 5.74963 3.33341 4.51528 4.57154C3.28095 5.80967 2.30181 7.27954 1.63379 8.89727C0.965777 10.5149 0.621948 12.2487 0.621948 13.9997ZM24.5488 13.9997C24.5488 16.1093 23.9251 18.1716 22.7567 19.9258C21.5881 21.6799 19.9273 23.047 17.9842 23.8544C16.0411 24.6617 13.9028 24.873 11.84 24.4614C9.77719 24.0498 7.88237 23.0339 6.39516 21.5421C4.90795 20.0504 3.89514 18.1498 3.48482 16.0806C3.0745 14.0115 3.28508 11.8667 4.08996 9.91767C4.89484 7.96861 6.25783 6.30274 8.00662 5.13061C9.75539 3.95861 11.8113 3.33301 13.9146 3.33301C16.734 3.33621 19.4369 4.46101 21.4306 6.46074C23.4242 8.46047 24.5456 11.1717 24.5488 13.9997ZM8.03873 12.3509C7.6496 12.7412 7.64965 13.3728 8.03883 13.763L8.50668 14.2322C8.89747 14.6241 9.53222 14.624 9.92296 14.2321L12.5854 11.5615V19.6663C12.5854 20.2186 13.0331 20.6663 13.5854 20.6663H14.2439C14.7962 20.6663 15.2439 20.2186 15.2439 19.6663V11.5615L17.9063 14.2321C18.297 14.624 18.9318 14.6241 19.3226 14.2322L19.7904 13.763C20.1796 13.3728 20.1797 12.7412 19.7905 12.3509L14.6228 7.16736C14.232 6.77539 13.5972 6.77539 13.2064 7.16736L8.03873 12.3509Z" fill="#FF4651"/>
</svg>
