<svg width="34" height="33" viewBox="0 0 34 33" fill="none" xmlns="http://www.w3.org/2000/svg">
<path fill-rule="evenodd" clip-rule="evenodd" d="M25.4823 0.699613C25.9705 0.211457 26.7619 0.211457 27.2501 0.699613L33.3084 6.75796C33.7966 7.24612 33.7966 8.03757 33.3084 8.52573C32.8203 9.01389 32.0288 9.01389 31.5407 8.52573L29.366 6.35104L25.9162 9.80076L31.7429 15.6274C32.231 16.1155 32.231 16.907 31.7429 17.3951C31.2547 17.8833 30.4633 17.8833 29.9751 17.3951L28.2433 15.6634L13.6567 30.25C13.6373 30.2694 13.6174 30.288 13.5971 30.3059C13.5622 30.3522 13.5237 30.3965 13.4816 30.4386C12.9935 30.9268 12.202 30.9268 11.7139 30.4386L8.10488 26.8297L2.46738 32.4672C1.97922 32.9553 1.18777 32.9553 0.699613 32.4672C0.211457 31.979 0.211457 31.1876 0.699613 30.6994L6.33712 25.0619L3.06075 21.7855L3.0468 21.7718C2.79412 21.5191 2.67223 21.1851 2.68114 20.8541C2.6894 20.5455 2.81128 20.2393 3.04681 20.0038L3.06032 19.9905L10.854 12.1968L10.8729 12.1775L10.8922 12.1586L17.8154 5.23543L16.0906 3.51067C15.6025 3.02252 15.6025 2.23106 16.0906 1.74291C16.5788 1.25475 17.3702 1.25475 17.8584 1.74291L24.1485 8.03299L27.5982 4.58327L25.4823 2.46738C24.9942 1.97922 24.9942 1.18777 25.4823 0.699613ZM26.4756 13.8956L19.5832 7.0032L17.438 9.1484L20.0039 11.7144C20.4921 12.2025 20.4921 12.994 20.0039 13.4821C19.5158 13.9703 18.7243 13.9703 18.2362 13.4821L15.6702 10.9162L13.5248 13.0616L16.0903 15.6271C16.5785 16.1153 16.5785 16.9067 16.0903 17.3949C15.6022 17.883 14.8107 17.883 14.3226 17.3949L11.757 14.8293L9.61162 16.9747L12.1776 19.5407C12.6657 20.0289 12.6657 20.8203 12.1776 21.3085C11.6894 21.7966 10.898 21.7966 10.4098 21.3085L7.84386 18.7425L5.69856 20.8878L12.591 27.7802L26.4756 13.8956Z" fill="#37C4F0"/>
</svg>
