<svg width="107" height="165" viewBox="0 0 107 165" fill="none" xmlns="http://www.w3.org/2000/svg">
<g filter="url(#filter0_d_6752_131664)">
<path d="M21.8716 82.5871L21.1033 83.2272L21.8716 82.5871ZM73.6333 101.509L72.6632 101.266L73.6333 101.509ZM56.8964 91.6027L57.5948 92.3184L56.8964 91.6027ZM96.2842 142.865C96.7885 142.64 97.0147 142.049 96.7895 141.544L93.1197 133.326C92.8945 132.822 92.3032 132.596 91.7989 132.821C91.2946 133.046 91.0684 133.638 91.2936 134.142L94.5556 141.447L87.2509 144.709C86.7466 144.934 86.5203 145.525 86.7455 146.03C86.9707 146.534 87.5621 146.76 88.0664 146.535L96.2842 142.865ZM24.3321 2.41737C22.7974 4.30916 20.3924 8.55021 18.0104 14.2138C15.6176 19.903 13.216 27.1038 11.7209 34.9561C8.73709 50.6274 9.33158 69.0976 21.1033 83.2272L22.6399 81.9471C11.4266 68.4877 10.7496 50.7504 13.6856 35.3302C15.1504 27.6368 17.5064 20.5709 19.854 14.9892C22.2122 9.38194 24.53 5.34797 25.8853 3.67741L24.3321 2.41737ZM21.1033 83.2272C32.3201 96.6906 44.4818 105.246 54.4028 108.554C59.3561 110.206 63.8511 110.581 67.4111 109.491C71.0375 108.38 73.5953 105.774 74.6033 101.752L72.6632 101.266C71.8229 104.619 69.7706 106.677 66.8255 107.579C63.814 108.501 59.7761 108.237 55.0354 106.657C45.5683 103.5 33.6975 95.2194 22.6399 81.9471L21.1033 83.2272ZM74.6033 101.752C76.0498 95.9794 73.8102 91.0079 69.9321 88.6123C66.028 86.2007 60.669 86.5236 56.198 90.887L57.5948 92.3184C61.4698 88.5366 65.8285 88.4283 68.881 90.3139C71.9595 92.2155 73.9153 96.2696 72.6632 101.266L74.6033 101.752ZM56.198 90.887C51.4427 95.5279 51.3524 104.847 57.207 114.616C63.1148 124.474 75.192 135.109 95.5191 142.886L96.2338 141.018C76.2115 133.358 64.5446 122.97 58.9226 113.588C53.2474 104.118 53.8417 95.9812 57.5948 92.3184L56.198 90.887Z" fill="black"/>
</g>
<defs>
<filter id="filter0_d_6752_131664" x="0.203796" y="0.416992" width="106.673" height="164.205" filterUnits="userSpaceOnUse" color-interpolation-filters="sRGB">
<feFlood flood-opacity="0" result="BackgroundImageFix"/>
<feColorMatrix in="SourceAlpha" type="matrix" values="0 0 0 0 0 0 0 0 0 0 0 0 0 0 0 0 0 0 127 0" result="hardAlpha"/>
<feOffset dy="8"/>
<feGaussianBlur stdDeviation="5"/>
<feColorMatrix type="matrix" values="0 0 0 0 0 0 0 0 0 0 0 0 0 0 0 0 0 0 0.34 0"/>
<feBlend mode="normal" in2="BackgroundImageFix" result="effect1_dropShadow_6752_131664"/>
<feBlend mode="normal" in="SourceGraphic" in2="effect1_dropShadow_6752_131664" result="shape"/>
</filter>
</defs>
</svg>
