<svg width="14" height="14" viewBox="0 0 14 14" fill="none" xmlns="http://www.w3.org/2000/svg">
<path fill-rule="evenodd" clip-rule="evenodd" d="M10.2001 0.599609C10.6419 0.599609 11.0001 0.957782 11.0001 1.39961V2.19961C12.3256 2.19961 13.4001 3.27413 13.4001 4.59961V10.9996C13.4001 12.3251 12.3256 13.3996 11.0001 13.3996H3.0001C1.67461 13.3996 0.600098 12.3251 0.600098 10.9996L0.600098 4.59961C0.600098 3.27413 1.67461 2.19961 3.0001 2.19961V1.39961C3.0001 0.957782 3.35827 0.599609 3.8001 0.599609C4.24193 0.599609 4.6001 0.957782 4.6001 1.39961V2.19961H9.4001V1.39961C9.4001 0.957782 9.75827 0.599609 10.2001 0.599609ZM11.8001 6.99961H2.2001V10.9996C2.2001 11.4414 2.55827 11.7996 3.0001 11.7996H11.0001C11.4419 11.7996 11.8001 11.4414 11.8001 10.9996V6.99961ZM11.0001 3.79961H3.0001C2.55827 3.79961 2.2001 4.15778 2.2001 4.59961V5.39961H11.8001V4.59961C11.8001 4.15778 11.4419 3.79961 11.0001 3.79961Z" fill="#5A3FFF"/>
</svg>
