<svg width="359" height="394" viewBox="0 0 359 394" fill="none" xmlns="http://www.w3.org/2000/svg">
<g clip-path="url(#clip0_7412_49552)">
<path d="M0 32C0 14.3269 14.3269 0 32 0H327C344.673 0 359 14.3269 359 32V362C359 379.673 344.673 394 327 394H32C14.3269 394 0 379.673 0 362V32Z" fill="#FFF0F1"/>
<g opacity="0.3" filter="url(#filter0_f_7412_49552)">
<path d="M127.051 249.254C127.051 222.208 345.036 177.883 454.029 159.101L717.975 99V346.918L584.032 433.314C568.274 505.937 529.667 651.182 501.303 651.182C465.847 651.182 190.083 673.72 162.506 651.182C134.93 628.644 87.6556 444.583 127.051 249.254Z" fill="#FF4651"/>
</g>
</g>
<defs>
<filter id="filter0_f_7412_49552" x="-88" y="-101" width="1005.97" height="962.199" filterUnits="userSpaceOnUse" color-interpolation-filters="sRGB">
<feFlood flood-opacity="0" result="BackgroundImageFix"/>
<feBlend mode="normal" in="SourceGraphic" in2="BackgroundImageFix" result="shape"/>
<feGaussianBlur stdDeviation="100" result="effect1_foregroundBlur_7412_49552"/>
</filter>
<clipPath id="clip0_7412_49552">
<path d="M0 32C0 14.3269 14.3269 0 32 0H327C344.673 0 359 14.3269 359 32V362C359 379.673 344.673 394 327 394H32C14.3269 394 0 379.673 0 362V32Z" fill="white"/>
</clipPath>
</defs>
</svg>
