<svg width="18" height="18" viewBox="0 0 18 18" fill="none" xmlns="http://www.w3.org/2000/svg">
<path fill-rule="evenodd" clip-rule="evenodd" d="M1.08024 1.0804C0.533506 1.62714 0.533505 2.51357 1.08024 3.0603L7.01994 9L1.08024 14.9397C0.533506 15.4864 0.533506 16.3729 1.08024 16.9196C1.62697 17.4663 2.51341 17.4663 3.06014 16.9196L8.99984 10.9799L14.9395 16.9196C15.4863 17.4663 16.3727 17.4663 16.9194 16.9196C17.4662 16.3729 17.4662 15.4864 16.9194 14.9397L10.9797 9L16.9194 3.0603C17.4662 2.51357 17.4662 1.62714 16.9194 1.0804C16.3727 0.53367 15.4863 0.533669 14.9395 1.0804L8.99984 7.0201L3.06014 1.0804C2.51341 0.53367 1.62697 0.53367 1.08024 1.0804Z" fill="black"/>
</svg>
