<svg width="40" height="40" viewBox="0 0 40 40" fill="none" xmlns="http://www.w3.org/2000/svg">
<path fill-rule="evenodd" clip-rule="evenodd" d="M18.2936 5.16345C19.3224 4.01124 20.0002 3.3335 20.0002 3.3335C20.0002 3.3335 20.6779 4.01124 21.7067 5.16345C24.9463 8.79175 31.6668 17.1249 31.6668 23.8157C31.6668 29.9927 26.4433 35.0002 20.0002 35.0002C13.557 35.0002 8.3335 29.9923 8.3335 23.8157C8.3335 17.1249 15.054 8.79175 18.2936 5.16345ZM20.0002 7.00647C18.9499 8.19154 17.5673 9.83969 16.1901 11.7372C14.7875 13.6698 13.4244 15.8147 12.4201 17.9573C11.4038 20.1254 10.8335 22.1264 10.8335 23.8157C10.8335 28.5133 14.8372 32.5002 20.0002 32.5002C25.1631 32.5002 29.1668 28.5136 29.1668 23.8157C29.1668 22.1264 28.5965 20.1254 27.5802 17.9573C26.5759 15.8147 25.2129 13.6698 23.8102 11.7372C22.433 9.83969 21.0504 8.19154 20.0002 7.00647Z" fill="#FF4651"/>
<path d="M17.838 25.4807C19.1479 26.7742 19.6854 28.3538 19.0387 29.0087C18.3919 29.6637 16.8057 29.146 15.4958 27.8524C14.1859 26.5589 13.6483 24.9793 14.2951 24.3244C14.9419 23.6694 16.5281 24.1871 17.838 25.4807Z" fill="#FF4651"/>
</svg>
