<svg width="20" height="20" viewBox="0 0 20 20" fill="none" xmlns="http://www.w3.org/2000/svg">
<path fill-rule="evenodd" clip-rule="evenodd" d="M10.2082 6.87533C10.2082 8.59711 11.0192 9.92526 12.2744 10.5116L11.8748 16.317V16.3337C11.8748 16.6516 11.9568 17.1227 12.2269 17.5353C12.519 17.9816 13.0199 18.3337 13.7498 18.3337C14.4798 18.3337 14.9807 17.9816 15.2728 17.5353C15.5428 17.1227 15.6248 16.6516 15.6248 16.3337V16.317L15.2253 10.5116C16.4805 9.92526 17.2915 8.59711 17.2915 6.87533C17.2915 5.72319 16.9325 4.46745 16.3493 3.48739C15.7843 2.53791 14.8912 1.66699 13.7498 1.66699C12.6084 1.66699 11.7154 2.53791 11.1503 3.48739C10.5671 4.46745 10.2082 5.72319 10.2082 6.87533ZM12.2245 4.12663C11.7521 4.92047 11.4582 5.9564 11.4582 6.87533C11.4582 8.3083 12.1621 9.17619 13.0237 9.46724L13.5406 9.65679V10.242L13.125 16.3478C13.1277 16.4882 13.1713 16.6957 13.2728 16.8508C13.3557 16.9774 13.4798 17.0837 13.7498 17.0837C14.0199 17.0837 14.144 16.9774 14.2269 16.8508C14.3284 16.6957 14.3719 16.4883 14.3747 16.3478L13.9591 10.242V9.65679L14.476 9.46724C15.3376 9.17619 16.0415 8.3083 16.0415 6.87533C16.0415 5.9564 15.7475 4.92047 15.2751 4.12663C14.7845 3.3022 14.2193 2.91699 13.7498 2.91699C13.2804 2.91699 12.7151 3.3022 12.2245 4.12663Z" fill="#D3B54A"/>
<path d="M4.7915 8.83064V1.91683H3.5415V9.49021L4.77436 10.3332L4.37484 16.4521V16.4681C4.37484 16.7787 4.46065 17.233 4.7383 17.6285C5.03885 18.0566 5.53939 18.3752 6.24984 18.3752C6.96029 18.3752 7.46083 18.0566 7.76138 17.6285C8.03902 17.233 8.12484 16.7787 8.12484 16.4681V16.4521L7.72531 10.3332L8.95817 9.49021V1.91683H7.70817V8.83064L6.44103 9.69706L6.87468 16.4811C6.87192 16.5984 6.83212 16.7767 6.7383 16.9103C6.66385 17.0164 6.53939 17.1252 6.24984 17.1252C5.96029 17.1252 5.83583 17.0164 5.76138 16.9103C5.66756 16.7767 5.62776 16.5984 5.62499 16.4811L6.05865 9.69706L4.7915 8.83064Z" fill="#D3B54A"/>
<path d="M6.87484 1.91683V8.5835H5.62484V1.91683H6.87484Z" fill="#D3B54A"/>
</svg>
