<svg width="41" height="40" viewBox="0 0 41 40" fill="none" xmlns="http://www.w3.org/2000/svg">
<path d="M36.4291 9.70114C35.157 5.11313 31.3316 3.49165 31.1696 3.42472C30.5526 3.17082 29.8456 3.46502 29.5908 4.08254L30.2487 5.66092C30.2777 5.67264 33.139 6.88663 34.099 10.3477C34.2473 10.883 34.7339 11.234 35.2635 11.234C35.3703 11.234 35.4791 11.2195 35.5871 11.1897C36.2308 11.0111 36.6076 10.3448 36.4291 9.70114ZM36.4291 9.70114L36.5255 9.67443C36.5255 9.67442 36.5254 9.67442 36.5254 9.67442C35.2407 5.0406 31.378 3.40264 31.2078 3.3323L31.2078 3.3323L31.2077 3.33225C30.5396 3.05733 29.7742 3.37588 29.4984 4.0444L29.4984 4.04446C29.223 4.71311 29.5425 5.478 30.2105 5.75337L30.2112 5.75365C30.2111 5.75358 30.2224 5.75832 30.2447 5.76846C30.2665 5.7784 30.2982 5.79327 30.3387 5.81331C30.4196 5.8534 30.5353 5.91415 30.6767 5.99758C30.9596 6.16449 31.3447 6.42192 31.7587 6.7859C32.5865 7.51372 33.5289 8.66662 34.0027 10.3744L36.4291 9.70114Z" fill="black" stroke="black" stroke-width="0.2"/>
<path d="M4.82083 9.67487L4.82083 9.6749C4.62797 10.3714 5.03595 11.0928 5.73286 11.286L5.73297 11.2861C5.84957 11.3183 5.96737 11.334 6.08321 11.334H6.08329C6.65698 11.3336 7.1833 10.9541 7.3444 10.3745L7.34442 10.3744C8.27556 7.01413 11.0149 5.80521 11.1418 5.75101C11.8062 5.47338 12.122 4.71082 11.8476 4.04453C11.5722 3.37548 10.8059 3.05739 10.1386 3.33232L10.1767 3.42478L10.1388 3.33224C9.96772 3.40231 6.10559 5.0407 4.82083 9.67487Z" fill="black" stroke="black" stroke-width="0.2"/>
<path d="M33.8316 34.5518L33.8316 34.5518L31.0908 31.6897C30.5903 31.1669 29.762 31.1495 29.2397 31.6495L29.2396 31.6495C28.7178 32.1496 28.6994 32.9783 29.1995 33.5007L29.1995 33.5007L31.9403 36.3628L31.9404 36.3629C32.1978 36.6311 32.5417 36.7665 32.886 36.7665C33.2114 36.7665 33.5375 36.6455 33.7914 36.403L33.7915 36.4029C34.3133 35.9029 34.3317 35.0742 33.8316 34.5518Z" fill="black" stroke="black" stroke-width="0.2"/>
<path d="M12.1072 31.6498L12.1071 31.6497C11.5848 31.1501 10.7558 31.1675 10.256 31.6899C10.256 31.6899 10.256 31.6899 10.2559 31.6899L7.51517 34.552L7.51516 34.552C7.01508 35.0744 7.03296 35.903 7.55486 36.4031L7.55491 36.4032C7.80884 36.6462 8.13502 36.7667 8.46038 36.7667C8.80455 36.7667 9.14897 36.6314 9.40603 36.363L9.40604 36.363L12.1469 33.5009L12.1469 33.5009C12.6469 32.9785 12.6291 32.1499 12.1072 31.6498Z" fill="black" stroke="black" stroke-width="0.2"/>
<path d="M25.1878 18.4686H21.5394V12.8049C21.5394 12.0818 20.9532 11.4957 20.2302 11.4957C19.5071 11.4957 18.921 12.0818 18.921 12.8049V19.7778C18.921 20.5009 19.507 21.087 20.2302 21.087H25.1878C25.9108 21.087 26.497 20.5013 26.497 19.7778C26.497 19.0547 25.9109 18.4686 25.1878 18.4686Z" fill="black" stroke="black" stroke-width="0.2"/>
<path d="M33.2668 19.1667C33.2668 26.2175 27.551 31.9333 20.5002 31.9333C13.4493 31.9333 7.7335 26.2175 7.7335 19.1667C7.7335 12.1158 13.4493 6.4 20.5002 6.4C27.551 6.4 33.2668 12.1158 33.2668 19.1667Z" stroke="black" stroke-width="2.8"/>
</svg>
