<svg width="20" height="20" viewBox="0 0 20 20" fill="none" xmlns="http://www.w3.org/2000/svg">
<path fill-rule="evenodd" clip-rule="evenodd" d="M14.2414 1.85005C14.4855 1.60597 14.8812 1.60597 15.1253 1.85005L18.1545 4.87923C18.3985 5.1233 18.3985 5.51903 18.1545 5.76311C17.9104 6.00719 17.5147 6.00719 17.2706 5.76311L16.1832 4.67576L14.4584 6.40062L17.3717 9.31393C17.6158 9.55801 17.6158 9.95374 17.3717 10.1978C17.1276 10.4419 16.7319 10.4419 16.4878 10.1978L15.6219 9.33193L8.32861 16.6252C8.3189 16.6349 8.30895 16.6443 8.29878 16.6532C8.28135 16.6763 8.26212 16.6985 8.24106 16.7196C7.99698 16.9636 7.60125 16.9636 7.35718 16.7196L5.55269 14.9151L2.73393 17.7338C2.48986 17.9779 2.09413 17.9779 1.85005 17.7338C1.60597 17.4897 1.60597 17.094 1.85005 16.8499L4.6688 14.0312L3.03062 12.393L3.02364 12.3861C2.8973 12.2598 2.83636 12.0928 2.84081 11.9273C2.84494 11.773 2.90589 11.6199 3.02365 11.5022L3.0304 11.4955L6.92726 7.59864L6.93671 7.58898L6.94637 7.57953L10.4079 4.11796L9.54556 3.25558C9.30148 3.0115 9.30148 2.61578 9.54556 2.3717C9.78964 2.12762 10.1854 2.12762 10.4294 2.3717L13.5745 5.51674L15.2993 3.79188L14.2414 2.73393C13.9973 2.48986 13.9973 2.09413 14.2414 1.85005ZM14.738 8.44805L11.2918 5.00184L10.2192 6.07444L11.5022 7.35743C11.7463 7.6015 11.7463 7.99723 11.5022 8.24131C11.2581 8.48539 10.8624 8.48539 10.6183 8.24131L9.33534 6.95833L8.26264 8.03103L9.54542 9.31381C9.7895 9.55788 9.7895 9.95361 9.54542 10.1977C9.30134 10.4418 8.90561 10.4418 8.66154 10.1977L7.37876 8.91491L6.30606 9.98761L7.58904 11.2706C7.83312 11.5147 7.83312 11.9104 7.58904 12.1545C7.34496 12.3986 6.94923 12.3986 6.70515 12.1545L5.42217 10.8715L4.34952 11.9441L7.79573 15.3903L14.738 8.44805Z" fill="#31D1C8"/>
</svg>
