<svg width="24" height="24" viewBox="0 0 24 24" fill="none" xmlns="http://www.w3.org/2000/svg">
<circle cx="12" cy="12" r="12" fill="black"/>
<path d="M15.4805 11.9272L15.4804 11.9273L15.4842 11.9365C15.5008 11.977 15.5008 12.0226 15.4842 12.0631L15.4841 12.0631L15.4805 12.0724C15.473 12.0917 15.462 12.1095 15.448 12.1247L12.1198 15.4529L12.1198 15.4529L12.1183 15.4544C12.1028 15.47 12.0844 15.4824 12.0641 15.4908C12.0438 15.4993 12.022 15.5037 12 15.5037C11.978 15.5037 11.9562 15.4993 11.9359 15.4908C11.9156 15.4824 11.8972 15.47 11.8817 15.4544L11.8817 15.4544L11.8788 15.4515C11.8631 15.436 11.8507 15.4175 11.8423 15.3972C11.8338 15.3769 11.8295 15.3551 11.8295 15.3331C11.8295 15.3111 11.8338 15.2893 11.8423 15.269C11.8507 15.2487 11.8631 15.2303 11.8788 15.2148L11.8797 15.2139L14.0797 13.0206L14.9364 12.1665H13.7267H8.66667C8.62246 12.1665 8.58007 12.1489 8.54882 12.1176C8.51756 12.0864 8.5 12.044 8.5 11.9998C8.5 11.9556 8.51756 11.9132 8.54882 11.8819C8.58007 11.8507 8.62246 11.8331 8.66667 11.8331H13.7267H14.9364L14.0797 10.979L11.8802 8.78624C11.8802 8.78619 11.8801 8.78613 11.88 8.78607C11.8484 8.75432 11.8306 8.71131 11.8306 8.66646C11.8306 8.64422 11.835 8.62219 11.8435 8.60164C11.852 8.58109 11.8645 8.56242 11.8802 8.54669C11.912 8.51492 11.9551 8.49707 12 8.49707C12.0222 8.49707 12.0443 8.50145 12.0648 8.50996L12.2551 8.0506L12.0648 8.50997C12.0854 8.51848 12.104 8.53095 12.1198 8.54668L15.448 11.8749C15.462 11.8901 15.473 11.9079 15.4805 11.9272Z" fill="white" stroke="white"/>
</svg>
