<svg width="12" height="12" viewBox="0 0 12 12" fill="none" xmlns="http://www.w3.org/2000/svg">
<path fill-rule="evenodd" clip-rule="evenodd" d="M5.99996 0.166992C9.22162 0.166992 11.8333 2.77866 11.8333 6.00033C11.8333 9.22199 9.22162 11.8337 5.99996 11.8337C2.7783 11.8337 0.166626 9.22199 0.166626 6.00033C0.166626 2.77866 2.7783 0.166992 5.99996 0.166992ZM5.99996 1.33366C3.42263 1.33366 1.33329 3.423 1.33329 6.00033C1.33329 8.57765 3.42263 10.667 5.99996 10.667C8.57729 10.667 10.6666 8.57765 10.6666 6.00033C10.6666 3.423 8.57729 1.33366 5.99996 1.33366ZM5.99996 2.50033C6.29911 2.50033 6.54567 2.72552 6.57937 3.01563L6.58329 3.08366V5.7587L7.5791 6.75451C7.80691 6.98232 7.80691 7.35167 7.5791 7.57947C7.36882 7.78975 7.03794 7.80593 6.8091 7.628L6.75415 7.57947L5.58748 6.4128C5.49632 6.32164 5.43844 6.20341 5.42168 6.077L5.41663 6.00033V3.08366C5.41663 2.76149 5.67779 2.50033 5.99996 2.50033Z" fill="#BCBCC5"/>
</svg>
