<svg width="28" height="28" viewBox="0 0 28 28" fill="none" xmlns="http://www.w3.org/2000/svg">
<path d="M14 27.333C11.3629 27.333 8.78506 26.551 6.59241 25.0859C4.39975 23.6208 2.69079 21.5385 1.68162 19.1021C0.672446 16.6658 0.408406 13.9849 0.922873 11.3985C1.43734 8.81207 2.70722 6.43634 4.57193 4.57154C6.43662 2.70687 8.81239 1.43701 11.3988 0.922474C13.9852 0.408073 16.6661 0.672073 19.1024 1.68127C21.5388 2.69047 23.6212 4.39941 25.0863 6.59207C26.5513 8.78474 27.3333 11.3626 27.3333 13.9997C27.3333 15.7506 26.9884 17.4844 26.3184 19.1021C25.6484 20.7198 24.6663 22.1896 23.4281 23.4278C22.19 24.6659 20.7201 25.648 19.1024 26.3181C17.4848 26.9881 15.7509 27.333 14 27.333ZM14 3.33301C11.8904 3.33301 9.82806 3.95861 8.07393 5.13061C6.31981 6.30274 4.95263 7.96861 4.1453 9.91768C3.33797 11.8667 3.12673 14.0115 3.5383 16.0806C3.94987 18.1498 4.96578 20.0504 6.45754 21.5421C7.9493 23.0339 9.84991 24.0498 11.9191 24.4614C13.9881 24.873 16.1329 24.6617 18.082 23.8544C20.0311 23.047 21.6969 21.6799 22.8691 19.9258C24.0411 18.1716 24.6667 16.1094 24.6667 13.9997C24.6635 11.1717 23.5387 8.46047 21.5389 6.46074C19.5392 4.46101 16.828 3.33621 14 3.33301ZM15.6499 19.8925C15.2593 20.283 14.6261 20.283 14.2356 19.8924L13.7642 19.4209C13.3738 19.0304 13.3739 18.3973 13.7643 18.0068L16.4381 15.333H8.33334C7.78106 15.333 7.33334 14.8853 7.33334 14.333V13.6663C7.33334 13.1141 7.78105 12.6663 8.33334 12.6663H16.4381L13.7643 9.99255C13.3739 9.60206 13.3738 8.96898 13.7642 8.57843L14.2356 8.10698C14.6261 7.71636 15.2593 7.71632 15.6499 8.10688L20.8356 13.2926C21.2261 13.6831 21.2261 14.3163 20.8356 14.7068L15.6499 19.8925Z" fill="#34CB71"/>
</svg>
