<svg width="48" height="48" viewBox="0 0 48 48" fill="none" xmlns="http://www.w3.org/2000/svg">
<circle cx="24" cy="24" r="20" stroke="#EEEBFF" stroke-width="8"/>
<mask id="path-2-inside-1_6080_119537" fill="white">
<path d="M24 3.00215C24 1.34411 22.6507 -0.0193492 21.0056 0.18752C17.6336 0.611544 14.3782 1.74855 11.461 3.53604C7.68733 5.84831 4.6265 9.15901 2.61688 13.1022C0.607258 17.0454 -0.272894 21.4674 0.0737151 25.8796C0.34166 29.2904 1.33465 32.5926 2.97303 35.5701C3.77236 37.0228 5.66846 37.3133 7.01003 36.339C8.3516 35.3647 8.62331 33.4948 7.8853 32.0101C6.86391 29.9552 6.24074 27.7154 6.05958 25.4094C5.79969 22.101 6.45964 18.7853 7.9665 15.8286C9.47336 12.8719 11.7684 10.3895 14.598 8.6557C16.5704 7.44718 18.7489 6.63521 21.0117 6.25415C22.6467 5.97881 24 4.6602 24 3.00215Z"/>
</mask>
<path d="M24 3.00215C24 1.34411 22.6507 -0.0193492 21.0056 0.18752C17.6336 0.611544 14.3782 1.74855 11.461 3.53604C7.68733 5.84831 4.6265 9.15901 2.61688 13.1022C0.607258 17.0454 -0.272894 21.4674 0.0737151 25.8796C0.34166 29.2904 1.33465 32.5926 2.97303 35.5701C3.77236 37.0228 5.66846 37.3133 7.01003 36.339C8.3516 35.3647 8.62331 33.4948 7.8853 32.0101C6.86391 29.9552 6.24074 27.7154 6.05958 25.4094C5.79969 22.101 6.45964 18.7853 7.9665 15.8286C9.47336 12.8719 11.7684 10.3895 14.598 8.6557C16.5704 7.44718 18.7489 6.63521 21.0117 6.25415C22.6467 5.97881 24 4.6602 24 3.00215Z" stroke="#5A3FFF" stroke-width="16" stroke-linecap="round" stroke-linejoin="round" mask="url(#path-2-inside-1_6080_119537)"/>
</svg>
