<svg width="40" height="40" viewBox="0 0 40 40" fill="none" xmlns="http://www.w3.org/2000/svg">
<rect width="40" height="40" rx="20" fill="#25D681" fill-opacity="0.1"/>
<path fill-rule="evenodd" clip-rule="evenodd" d="M21.8481 14.7315L21.9752 14.5941C22.5259 14.0684 23.3925 14.028 23.9918 14.4728L24.1358 14.5941L28.7191 18.9691L28.7824 19.0332L28.8666 19.1322L28.9761 19.2944L29.0578 19.4588L29.1118 19.6124L29.156 19.8281L29.1666 20.0003L29.1623 20.11L29.1357 20.293L29.0906 20.4555L29.0235 20.6175L28.9435 20.7597L28.8309 20.9124L28.7191 21.0315L24.1358 25.4065C23.5391 25.976 22.5718 25.976 21.9752 25.4065C21.4244 24.8808 21.3821 24.0536 21.8481 23.4815L21.9752 23.3441L23.9492 21.4587H12.361C11.5173 21.4587 10.8333 20.8057 10.8333 20.0003C10.8333 19.1949 11.5173 18.542 12.361 18.542H23.9492L21.9752 16.6565C21.4244 16.1308 21.3821 15.3036 21.8481 14.7315L21.9752 14.5941L21.8481 14.7315Z" fill="#25D682"/>
</svg>
