<svg width="32" height="32" viewBox="0 0 32 32" fill="none" xmlns="http://www.w3.org/2000/svg">
<path d="M13.7195 5.14694L2.42621 24.0003C2.19336 24.4035 2.07016 24.8607 2.06886 25.3263C2.06755 25.7919 2.18819 26.2498 2.41877 26.6543C2.64936 27.0588 2.98184 27.3959 3.38315 27.6321C3.78446 27.8682 4.24061 27.9952 4.70621 28.0003H27.2929C27.7585 27.9952 28.2146 27.8682 28.6159 27.6321C29.0172 27.3959 29.3497 27.0588 29.5803 26.6543C29.8109 26.2498 29.9315 25.7919 29.9302 25.3263C29.9289 24.8607 29.8057 24.4035 29.5729 24.0003L18.2795 5.14694C18.0418 4.75508 17.7072 4.4311 17.3078 4.20625C16.9084 3.9814 16.4579 3.86328 15.9995 3.86328C15.5412 3.86328 15.0906 3.9814 14.6913 4.20625C14.2919 4.4311 13.9572 4.75508 13.7195 5.14694V5.14694Z" stroke="#FF4651" stroke-width="3" stroke-linecap="round" stroke-linejoin="round"/>
<path d="M16 12V17.3333" stroke="#FF4651" stroke-width="2" stroke-linecap="round" stroke-linejoin="round"/>
<path d="M16 22.667H16.0133" stroke="#FF4651" stroke-width="2" stroke-linecap="round" stroke-linejoin="round"/>
</svg>
