<svg width="21" height="21" viewBox="0 0 21 21" fill="none" xmlns="http://www.w3.org/2000/svg">
<path fill-rule="evenodd" clip-rule="evenodd" d="M10.5 18.8818C9.94772 18.8818 9.5 18.4341 9.5 17.8818V11.8818H3.5C2.94772 11.8818 2.5 11.4341 2.5 10.8818C2.5 10.3296 2.94772 9.88184 3.5 9.88184H9.5L9.5 3.88184C9.5 3.32955 9.94772 2.88184 10.5 2.88184C11.0523 2.88184 11.5 3.32955 11.5 3.88184V9.88184H17.5C18.0523 9.88184 18.5 10.3296 18.5 10.8818C18.5 11.4341 18.0523 11.8818 17.5 11.8818L11.5 11.8818V17.8818C11.5 18.4341 11.0523 18.8818 10.5 18.8818Z" fill="white"/>
</svg>
