<svg width="40" height="40" viewBox="0 0 40 40" fill="none" xmlns="http://www.w3.org/2000/svg">
<path fill-rule="evenodd" clip-rule="evenodd" d="M20.4166 13.7497C20.4166 17.1932 22.0385 19.8495 24.5491 21.0221L23.7499 32.633V32.6664C23.7499 33.3022 23.9139 34.2445 24.454 35.0697C25.0383 35.9623 26.0401 36.6664 27.4999 36.6664C28.9598 36.6664 29.9616 35.9623 30.5458 35.0697C31.0859 34.2445 31.2499 33.3022 31.2499 32.6664V32.633L30.4508 21.0221C32.9613 19.8495 34.5832 17.1932 34.5832 13.7497C34.5832 11.4454 33.8653 8.93392 32.6989 6.97381C31.5689 5.07485 29.7827 3.33301 27.4999 3.33301C25.2171 3.33301 23.431 5.07485 22.3009 6.97381C21.1345 8.93392 20.4166 11.4454 20.4166 13.7497ZM24.4493 8.25228C23.5045 9.83997 22.9166 11.9118 22.9166 13.7497C22.9166 16.6156 24.3244 18.3514 26.0476 18.9335L27.0815 19.3126V20.4831L26.2502 32.6945C26.2557 32.9755 26.3428 33.3904 26.5458 33.7005C26.7116 33.9538 26.9598 34.1664 27.4999 34.1664C28.0401 34.1664 28.2883 33.9538 28.454 33.7005C28.657 33.3904 28.7441 32.9755 28.7496 32.6945L27.9184 20.4831V19.3126L28.9522 18.9335C30.6754 18.3514 32.0832 16.6156 32.0832 13.7497C32.0832 11.9118 31.4953 9.83997 30.5505 8.25228C29.5693 6.60343 28.4388 5.83301 27.4999 5.83301C26.5611 5.83301 25.4305 6.60343 24.4493 8.25228Z" fill="#CECE95"/>
<path d="M9.58325 17.6603V3.83268H7.08325V18.9794L9.54896 20.6654L8.74992 32.9032V32.9353C8.74992 33.5563 8.92154 34.465 9.47684 35.256C10.0779 36.1123 11.079 36.7494 12.4999 36.7494C13.9208 36.7494 14.9219 36.1123 15.523 35.256C16.0783 34.465 16.2499 33.5563 16.2499 32.9353V32.9032L15.4509 20.6654L17.9166 18.9794V3.83268H15.4166V17.6603L12.8823 19.3931L13.7496 32.9612C13.7441 33.1958 13.6645 33.5523 13.4768 33.8196C13.3279 34.0317 13.079 34.2494 12.4999 34.2494C11.9208 34.2494 11.6719 34.0317 11.523 33.8196C11.3354 33.5523 11.2558 33.1958 11.2502 32.9612L12.1175 19.3931L9.58325 17.6603Z" fill="#CECE95"/>
<path d="M13.7499 3.83268V17.166H11.2499V3.83268H13.7499Z" fill="#CECE95"/>
</svg>
