<svg width="28" height="34" viewBox="0 0 28 34" fill="none" xmlns="http://www.w3.org/2000/svg">
<path fill-rule="evenodd" clip-rule="evenodd" d="M13.4168 10.7502C13.4168 14.1937 15.0388 16.85 17.5493 18.0226L16.7502 29.6335V29.6668C16.7502 30.3027 16.9142 31.245 17.4543 32.0702C18.0385 32.9627 19.0403 33.6669 20.5002 33.6669C21.96 33.6669 22.9618 32.9627 23.546 32.0702C24.0861 31.245 24.2502 30.3027 24.2502 29.6668V29.6335L23.451 18.0226C25.9615 16.85 27.5835 14.1937 27.5835 10.7502C27.5835 8.44589 26.8656 5.9344 25.6991 3.97429C24.5691 2.07534 22.783 0.333496 20.5002 0.333496C18.2173 0.333496 16.4312 2.07534 15.3012 3.97429C14.1347 5.9344 13.4168 8.44589 13.4168 10.7502ZM17.4496 5.25276C16.5047 6.84045 15.9168 8.9123 15.9168 10.7502C15.9168 13.6161 17.3247 15.3519 19.0478 15.934L20.0817 16.3131V17.4836L19.2504 29.695C19.2559 29.976 19.343 30.3909 19.546 30.701C19.7118 30.9543 19.96 31.1669 20.5002 31.1669C21.0403 31.1669 21.2885 30.9543 21.4543 30.701C21.6573 30.3909 21.7444 29.976 21.7499 29.695L20.9186 17.4836V16.3131L21.9525 15.934C23.6757 15.3519 25.0835 13.6161 25.0835 10.7502C25.0835 8.9123 24.4956 6.84045 23.5508 5.25276C22.5696 3.60392 21.439 2.8335 20.5002 2.8335C19.5613 2.8335 18.4308 3.60392 17.4496 5.25276Z" fill="#CECE95"/>
<path d="M2.5835 14.6608V0.833171H0.0834961V15.9799L2.54921 17.6659L1.75016 29.9037V29.9357C1.75016 30.5568 1.92179 31.4655 2.47709 32.2565C3.07818 33.1128 4.07926 33.7498 5.50016 33.7498C6.92106 33.7498 7.92215 33.1128 8.52324 32.2565C9.07854 31.4655 9.25016 30.5568 9.25016 29.9357V29.9037L8.45112 17.6659L10.9168 15.9799V0.833171H8.41683V14.6608L5.88254 16.3936L6.74985 29.9617C6.74432 30.1963 6.66472 30.5528 6.47708 30.8201C6.32818 31.0322 6.07926 31.2498 5.50016 31.2498C4.92106 31.2498 4.67215 31.0322 4.52324 30.8201C4.33561 30.5528 4.25601 30.1963 4.25047 29.9617L5.11778 16.3936L2.5835 14.6608Z" fill="#CECE95"/>
<path d="M6.75016 0.833171V14.1665H4.25016V0.833171H6.75016Z" fill="#CECE95"/>
</svg>
