<svg width="128" height="266" viewBox="0 0 128 266" fill="none" xmlns="http://www.w3.org/2000/svg">
<path d="M71.5241 144.825C100.794 144.825 124.521 122.187 124.521 94.2604C124.521 66.3341 100.794 43.6953 71.5241 43.6953C42.2546 43.6953 18.527 66.3341 18.527 94.2604C18.527 122.187 42.2546 144.825 71.5241 144.825Z" fill="#FB8685"/>
<path d="M56.585 45.0407C52.6384 45.3096 48.9737 46.1165 45.309 47.4613C65.3239 47.4613 77.7275 61.9853 79.4189 80.5438C81.3922 100.178 69.8343 117.123 48.4099 119.006C40.7986 119.543 33.1873 118.199 26.9855 115.24C36.2882 124.385 49.8194 129.764 64.1963 128.419C89.0034 126.268 107.609 106.095 105.354 82.9645C103.098 59.8336 81.3922 42.889 56.585 45.0407Z" fill="#F16969"/>
<path d="M34.5658 199.946C58.0946 201.298 60.789 177 60.789 177" stroke="#1D1D1B" stroke-width="2" stroke-miterlimit="10" stroke-linecap="round"/>
<g opacity="0.74">
<g opacity="0.74">
<path opacity="0.74" d="M79.699 86.1908C80.2628 103.136 68.1412 117.391 52.6367 117.928C40.515 118.466 29.8028 110.398 25.2924 98.8321V98.5631C23.8829 82.9633 29.8028 68.7082 40.515 58.4876C43.6159 57.1428 46.7168 56.3359 50.0996 56.3359C65.8859 55.798 78.8533 69.2461 79.699 86.1908Z" fill="#FDB5B6"/>
</g>
</g>
<path d="M66.81 51.1041C63.0731 53.5334 44.1212 54.8829 40.1173 56.2325C62.5392 55.9626 85.7619 58.6618 87.6304 79.9853C89.4989 102.658 68.1447 115.615 43.8543 117.774C37.4481 118.314 32.3764 119.663 26.771 117.774C25.7032 117.504 27.0379 123.712 28.1056 124.522C37.9819 132.349 51.3283 133.969 65.4754 135.319C104.714 139.367 124.733 117.504 116.992 82.9544C110.586 55.4228 88.4311 35.7188 66.81 51.1041Z" fill="#F15560"/>
<path d="M108.171 141.061L43.3337 146.709L81.3902 232.508C82.7997 235.467 86.7463 234.929 87.592 231.97L108.171 141.061Z" fill="#FFD46E"/>
<path d="M95.2049 161.232L83.0832 232.238C84.4927 232.238 85.9022 231.431 86.1841 229.817L106.763 139.177L45.8724 146.977L51.5104 160.963C62.5045 152.087 85.9023 153.432 95.4869 156.659" fill="#F7AE4F"/>
<g opacity="0.22">
<g opacity="0.22">
<path opacity="0.22" d="M68.4243 79.736C68.9881 92.1083 59.4035 102.598 46.718 103.405C36.8515 103.943 28.1127 98.5634 24.448 90.4945C23.0385 79.467 27.8308 68.7085 36.2877 61.1775C38.8248 60.1017 41.3619 59.5637 44.1809 59.2948C56.8664 58.2189 67.8605 67.6326 68.4243 79.736Z" fill="#FDB5B6"/>
</g>
</g>
<path d="M65.6053 71.1303C86.1562 71.1303 102.816 55.235 102.816 35.6272C102.816 16.0193 86.1562 0.124023 65.6053 0.124023C45.0543 0.124023 28.3945 16.0193 28.3945 35.6272C28.3945 55.235 45.0543 71.1303 65.6053 71.1303Z" fill="#E9C0F8"/>
<path d="M62.2206 0.1245C56.8646 0.662426 52.0722 2.00724 47.8437 4.15895C48.9713 3.88999 50.099 3.88997 51.2266 3.62101C67.013 2.27619 81.1079 13.3037 82.5174 28.3656C83.9269 43.4276 72.369 56.8757 56.5827 58.2206C45.8705 59.0275 36.2859 54.4551 30.366 46.6551C35.7221 61.986 51.5085 72.4756 69.2681 71.1308C89.8468 69.2481 105.069 52.0344 103.096 32.4001C101.123 12.7658 82.7993 -1.48928 62.2206 0.1245Z" fill="#E9ACF9"/>
<path d="M66.1677 33.4741C62.7849 45.8464 51.5089 53.9153 40.5148 51.2257C36.0044 50.1498 32.0578 47.1912 29.8026 43.4257C29.5207 42.3499 29.5208 41.274 29.2389 39.9292C27.8294 25.4052 35.7225 12.226 48.1261 5.50195C49.5356 5.50195 50.9451 5.77091 52.6365 6.03987C63.6306 8.7295 69.5505 20.8329 66.1677 33.4741Z" fill="#F2CBFA"/>
<path d="M112.682 122.233L33.4683 128.957C27.5484 129.495 23.3198 134.336 23.8836 139.985C24.4474 145.633 29.5217 149.667 35.4416 149.129L89.5663 144.557C90.1301 146.978 92.3853 148.86 94.9224 148.591C97.4595 148.322 99.4328 146.171 99.4328 143.75L114.655 142.405C120.575 141.867 124.804 137.026 124.24 131.378C123.676 125.998 118.32 121.695 112.682 122.233Z" fill="#FB8685"/>
<path d="M23.6029 139.715C24.1667 145.363 29.2409 149.666 35.1608 149.128L89.2855 144.556C89.8493 146.977 92.1045 148.859 94.6416 148.591C97.1787 148.322 99.152 146.17 99.152 143.749L114.375 142.404C120.294 141.866 124.523 137.025 123.959 131.377L23.6029 139.715Z" fill="#FB6D7B"/>
<path d="M45.0262 211.798L24.7294 220.404C23.038 221.211 20.7828 220.404 19.9371 218.791L1.33177 178.984C0.48607 177.37 1.33179 175.219 3.02318 174.412L23.3199 165.805C25.0113 164.998 27.2665 165.805 28.1122 167.419L46.7176 207.225C47.5633 209.108 46.7176 210.991 45.0262 211.798Z" fill="black" stroke="black" stroke-width="0.4806" stroke-miterlimit="10"/>
<path d="M23.3192 177.639C25.6546 177.639 27.5477 175.833 27.5477 173.605C27.5477 171.377 25.6546 169.57 23.3192 169.57C20.9839 169.57 19.0907 171.377 19.0907 173.605C19.0907 175.833 20.9839 177.639 23.3192 177.639Z" fill="white" stroke="white" stroke-width="0.3549" stroke-miterlimit="10"/>
<path d="M26.4212 182.212C27.9781 182.212 29.2402 181.008 29.2402 179.523C29.2402 178.037 27.9781 176.833 26.4212 176.833C24.8643 176.833 23.6022 178.037 23.6022 179.523C23.6022 181.008 24.8643 182.212 26.4212 182.212Z" fill="white" stroke="white" stroke-width="0.3549" stroke-miterlimit="10"/>
<path d="M23.3199 176.564C25.0324 176.564 26.4208 175.239 26.4208 173.605C26.4208 171.971 25.0324 170.646 23.3199 170.646C21.6073 170.646 20.219 171.971 20.219 173.605C20.219 175.239 21.6073 176.564 23.3199 176.564Z" fill="black" stroke="black" stroke-width="0.3549" stroke-miterlimit="10"/>
<path d="M26.4215 180.866C27.1999 180.866 27.831 180.264 27.831 179.522C27.831 178.779 27.1999 178.177 26.4215 178.177C25.643 178.177 25.012 178.779 25.012 179.522C25.012 180.264 25.643 180.866 26.4215 180.866Z" fill="black" stroke="black" stroke-width="0.3549" stroke-miterlimit="10"/>
<path d="M20.5002 174.143C21.2786 174.143 21.9097 173.541 21.9097 172.798C21.9097 172.055 21.2786 171.453 20.5002 171.453C19.7218 171.453 19.0907 172.055 19.0907 172.798C19.0907 173.541 19.7218 174.143 20.5002 174.143Z" fill="white"/>
<path d="M90.3851 173.605C90.3851 173.605 96.5869 184.095 105.608 184.902C114.629 185.709 122.24 183.826 122.24 183.826" stroke="#1D1D1B" stroke-width="2" stroke-miterlimit="10" stroke-linecap="round"/>
<g filter="url(#filter0_d_6752_131603)">
<path d="M9.78876 203.46C9.22496 202.384 10.6345 200.77 13.7354 199.425C16.8364 198.349 19.0916 198.618 19.3735 199.694C19.9373 200.77 18.5277 202.384 15.4268 203.729C12.3259 204.804 10.3526 204.535 9.78876 203.46Z" fill="#FFD46E"/>
</g>
<g filter="url(#filter1_d_6752_131603)">
<path d="M8.37886 199.694C7.81507 198.618 8.94269 196.735 11.7617 195.122C14.5806 193.508 16.8358 193.508 17.3996 194.584C17.9634 195.66 16.8358 197.542 14.0168 199.156C11.1978 200.77 8.94266 200.77 8.37886 199.694Z" fill="#FFD46E"/>
</g>
<path d="M122.805 176.025C129.007 179.253 132.107 182.48 122.523 184.632C119.422 185.17 118.858 181.942 117.449 177.37C116.885 175.218 116.603 173.335 116.603 171.722C116.603 170.915 116.885 170.108 116.885 169.57C117.167 168.763 118.012 168.494 118.858 168.763C119.422 169.032 119.986 169.57 120.268 170.377C121.395 172.528 120.831 174.949 122.805 176.025Z" fill="#E89326"/>
<g filter="url(#filter2_d_6752_131603)">
<path d="M131.747 177.824C132.491 178.795 131.385 180.611 128.563 182.43C125.742 184.25 123.471 184.345 123.004 183.329C122.26 182.358 123.367 180.542 126.188 178.722C128.732 176.947 131.003 176.853 131.747 177.824Z" fill="#FFD46E"/>
</g>
<g filter="url(#filter3_d_6752_131603)">
<path d="M129.774 173.927C130.326 174.903 129.378 176.799 126.309 178.378C123.24 179.956 121.258 180.16 120.637 178.923C120.085 177.947 121.032 176.052 124.101 174.473C126.897 172.961 129.222 172.951 129.774 173.927Z" fill="#FFD46E"/>
</g>
<ellipse cx="57.117" cy="157.313" rx="3.36761" ry="3.21191" fill="black"/>
<ellipse cx="56.4435" cy="157.956" rx="1.34704" ry="1.28477" fill="white"/>
<ellipse cx="74.6286" cy="156.029" rx="3.36761" ry="3.21191" fill="black"/>
<ellipse cx="73.9551" cy="156.671" rx="1.34705" ry="1.28477" fill="white"/>
<path d="M62.8441 162.718C62.5107 162.277 61.8835 162.191 61.4432 162.524C61.0029 162.858 60.9162 163.485 61.2496 163.925L62.8441 162.718ZM71.3048 162.46C71.4895 161.94 71.2172 161.368 70.6967 161.184C70.1762 160.999 69.6045 161.271 69.4199 161.792L71.3048 162.46ZM61.2496 163.925C61.7426 164.576 62.4016 165.28 63.1654 165.861C63.9222 166.437 64.8403 166.936 65.8451 167.088C66.8888 167.244 67.9726 167.015 68.9518 166.221C69.898 165.454 70.6828 164.214 71.3048 162.46L69.4199 161.792C68.8652 163.355 68.2461 164.219 67.6925 164.667C67.1718 165.089 66.6597 165.188 66.1425 165.11C65.5866 165.026 64.979 164.728 64.3764 164.27C63.7808 163.817 63.2467 163.249 62.8441 162.718L61.2496 163.925Z" fill="black"/>
<defs>
<filter id="filter0_d_6752_131603" x="9.66711" y="198.74" width="9.828" height="6.67285" filterUnits="userSpaceOnUse" color-interpolation-filters="sRGB">
<feFlood flood-opacity="0" result="BackgroundImageFix"/>
<feColorMatrix in="SourceAlpha" type="matrix" values="0 0 0 0 0 0 0 0 0 0 0 0 0 0 0 0 0 0 127 0" result="hardAlpha"/>
<feOffset dy="1"/>
<feComposite in2="hardAlpha" operator="out"/>
<feColorMatrix type="matrix" values="0 0 0 0 0 0 0 0 0 0 0 0 0 0 0 0 0 0 1 0"/>
<feBlend mode="normal" in2="BackgroundImageFix" result="effect1_dropShadow_6752_131603"/>
<feBlend mode="normal" in="SourceGraphic" in2="effect1_dropShadow_6752_131603" result="shape"/>
</filter>
<filter id="filter1_d_6752_131603" x="8.23792" y="193.834" width="9.30261" height="7.61035" filterUnits="userSpaceOnUse" color-interpolation-filters="sRGB">
<feFlood flood-opacity="0" result="BackgroundImageFix"/>
<feColorMatrix in="SourceAlpha" type="matrix" values="0 0 0 0 0 0 0 0 0 0 0 0 0 0 0 0 0 0 127 0" result="hardAlpha"/>
<feOffset dy="1"/>
<feComposite in2="hardAlpha" operator="out"/>
<feColorMatrix type="matrix" values="0 0 0 0 0 0 0 0 0 0 0 0 0 0 0 0 0 0 1 0"/>
<feBlend mode="normal" in2="BackgroundImageFix" result="effect1_dropShadow_6752_131603"/>
<feBlend mode="normal" in="SourceGraphic" in2="effect1_dropShadow_6752_131603" result="shape"/>
</filter>
<filter id="filter2_d_6752_131603" x="122.779" y="177.209" width="9.19385" height="7.7666" filterUnits="userSpaceOnUse" color-interpolation-filters="sRGB">
<feFlood flood-opacity="0" result="BackgroundImageFix"/>
<feColorMatrix in="SourceAlpha" type="matrix" values="0 0 0 0 0 0 0 0 0 0 0 0 0 0 0 0 0 0 127 0" result="hardAlpha"/>
<feOffset dy="1"/>
<feComposite in2="hardAlpha" operator="out"/>
<feColorMatrix type="matrix" values="0 0 0 0 0 0 0 0 0 0 0 0 0 0 0 0 0 0 1 0"/>
<feBlend mode="normal" in2="BackgroundImageFix" result="effect1_dropShadow_6752_131603"/>
<feBlend mode="normal" in="SourceGraphic" in2="effect1_dropShadow_6752_131603" result="shape"/>
</filter>
<filter id="filter3_d_6752_131603" x="120.488" y="173.255" width="9.43433" height="7.46973" filterUnits="userSpaceOnUse" color-interpolation-filters="sRGB">
<feFlood flood-opacity="0" result="BackgroundImageFix"/>
<feColorMatrix in="SourceAlpha" type="matrix" values="0 0 0 0 0 0 0 0 0 0 0 0 0 0 0 0 0 0 127 0" result="hardAlpha"/>
<feOffset dy="1"/>
<feComposite in2="hardAlpha" operator="out"/>
<feColorMatrix type="matrix" values="0 0 0 0 0 0 0 0 0 0 0 0 0 0 0 0 0 0 1 0"/>
<feBlend mode="normal" in2="BackgroundImageFix" result="effect1_dropShadow_6752_131603"/>
<feBlend mode="normal" in="SourceGraphic" in2="effect1_dropShadow_6752_131603" result="shape"/>
</filter>
</defs>
</svg>
