<svg width="20" height="20" viewBox="0 0 20 20" fill="none" xmlns="http://www.w3.org/2000/svg">
<path fill-rule="evenodd" clip-rule="evenodd" d="M0.292893 3.29289L3.29289 0.292893C3.68342 -0.0976311 4.31658 -0.0976311 4.70711 0.292893C5.09763 0.683417 5.09763 1.31658 4.70711 1.70711L1.70711 4.70711C1.31658 5.09763 0.683417 5.09763 0.292893 4.70711C-0.0976311 4.31658 -0.0976311 3.68342 0.292893 3.29289ZM16.7071 0.292893L19.7071 3.29289C20.0976 3.68342 20.0976 4.31658 19.7071 4.70711C19.3166 5.09763 18.6834 5.09763 18.2929 4.70711L15.2929 1.70711C14.9024 1.31658 14.9024 0.683417 15.2929 0.292893C15.6834 -0.0976311 16.3166 -0.0976311 16.7071 0.292893ZM10 20C14.9706 20 19 15.9706 19 11C19 6.02944 14.9706 2 10 2C5.02944 2 1 6.02944 1 11C1 15.9706 5.02944 20 10 20ZM10 18C6.13401 18 3 14.866 3 11C3 7.13401 6.13401 4 10 4C13.866 4 17 7.13401 17 11C17 14.866 13.866 18 10 18ZM10 6C10.5523 6 11 6.44772 11 7V9.58579L12.7071 11.2929C13.0976 11.6834 13.0976 12.3166 12.7071 12.7071C12.3166 13.0976 11.6834 13.0976 11.2929 12.7071L9.29289 10.7071C9.10536 10.5196 9 10.2652 9 10V7C9 6.44772 9.44771 6 10 6Z" fill="black"/>
</svg>
