<svg width="32" height="32" viewBox="0 0 32 32" fill="none" xmlns="http://www.w3.org/2000/svg">
<path d="M28.7434 7.76111C27.7257 4.0907 24.6654 2.79352 24.5358 2.73997C24.0421 2.53685 23.4766 2.77221 23.2728 3.26622C23.0693 3.76023 23.3053 4.32544 23.799 4.52893C23.8223 4.5383 26.1113 5.5095 26.8793 8.27835C26.998 8.70658 27.3872 8.98741 27.8109 8.98741C27.8963 8.98741 27.9834 8.97579 28.0698 8.95194C28.5847 8.80908 28.8862 8.27606 28.7434 7.76111ZM28.7434 7.76111L28.8397 7.73439M28.7434 7.76111L28.8397 7.73439C28.8397 7.73439 28.8397 7.73439 28.8397 7.73439M28.8397 7.73439C27.8094 4.01817 24.7118 2.7045 24.574 2.64755L24.5738 2.6475C24.0291 2.42337 23.4052 2.68307 23.1803 3.22809L23.1803 3.22815C22.9558 3.77329 23.2163 4.39689 23.7609 4.62138L23.7609 4.62139L23.7616 4.62166L23.7616 4.62168C23.7629 4.62222 23.7987 4.63731 23.8621 4.66876C23.9265 4.70063 24.0186 4.74901 24.1313 4.81549C24.3567 4.94849 24.6637 5.15371 24.9938 5.44394C25.6539 6.02424 26.4053 6.9434 26.783 8.30508C26.9139 8.77774 27.3434 9.08741 27.8109 9.08741C27.9054 9.08741 28.0014 9.07456 28.0964 9.04834L28.0965 9.0483C28.6647 8.89067 28.9973 8.30254 28.8397 7.73439Z" fill="black" stroke="black" stroke-width="0.2"/>
<path d="M3.43748 7.73478L3.43749 7.73475C4.4676 4.01909 7.56358 2.70483 7.70345 2.64752M3.43748 7.73478L7.74145 2.74002M3.43748 7.73478C3.28025 8.30261 3.61287 8.89072 4.18104 9.04829L4.18115 9.04833C4.27615 9.07455 4.37218 9.0874 4.46667 9.0874H4.46674C4.93443 9.08706 5.36354 8.77775 5.49489 8.30512L5.49491 8.30504C6.23718 5.62636 8.42072 4.66241 8.52134 4.61943M3.43748 7.73478L8.52134 4.61943M7.70345 2.64752C7.70349 2.6475 7.70352 2.64749 7.70355 2.64748L7.74145 2.74002M7.70345 2.64752C7.70342 2.64753 7.70339 2.64754 7.70336 2.64756L7.74145 2.74002M7.70345 2.64752C8.24747 2.42344 8.87216 2.68277 9.09663 3.22821M7.74145 2.74002C8.23447 2.53689 8.80072 2.77194 9.00416 3.26627M9.09663 3.22821C9.09663 3.2282 9.09662 3.22818 9.09662 3.22817L9.00416 3.26627M9.09663 3.22821C9.3204 3.7714 9.06293 4.39306 8.52134 4.61943M9.09663 3.22821L9.00416 3.26627M9.00416 3.26627L8.52134 4.61943" fill="black" stroke="black" stroke-width="0.2"/>
<path d="M26.6799 27.6274L26.6799 27.6274L24.4873 25.3377C24.4873 25.3377 24.4873 25.3377 24.4873 25.3377C24.0792 24.9115 23.4039 24.8973 22.9781 25.305L22.9781 25.305C22.5526 25.7127 22.5376 26.3883 22.9453 26.8142L22.9453 26.8142L25.138 29.1039L25.1381 29.1039C25.3479 29.3226 25.6283 29.433 25.909 29.433C26.1743 29.433 26.4402 29.3344 26.6471 29.1367L26.6472 29.1366C27.0727 28.7289 27.0876 28.0533 26.6799 27.6274Z" fill="black" stroke="black" stroke-width="0.2"/>
<path d="M9.29976 25.3058L9.2997 25.3057C8.87391 24.8984 8.19803 24.9125 7.79054 25.3385C7.79053 25.3385 7.79051 25.3385 7.7905 25.3385L5.59789 27.6282L5.59788 27.6282C5.19018 28.054 5.20475 28.7296 5.63025 29.1373L5.6303 29.1374C5.83731 29.3355 6.10327 29.4337 6.3685 29.4337C6.64906 29.4337 6.92989 29.3234 7.13947 29.1046L7.13947 29.1046L9.33212 26.8149L9.33213 26.8149C9.73983 26.3891 9.72526 25.7135 9.29976 25.3058Z" fill="black" stroke="black" stroke-width="0.2"/>
<path d="M19.7503 14.7547H16.8516V10.2437C16.8516 9.65421 16.3737 9.17637 15.7842 9.17637C15.1947 9.17637 14.7169 9.65421 14.7169 10.2437V15.822C14.7169 16.4115 15.1947 16.8894 15.7842 16.8894H19.7503C20.3398 16.8894 20.8177 16.4119 20.8177 15.822C20.8177 15.2325 20.3399 14.7547 19.7503 14.7547Z" fill="black" stroke="black" stroke-width="0.2"/>
<path d="M25.9337 15.3333C25.9337 20.8194 21.4864 25.2667 16.0003 25.2667C10.5143 25.2667 6.06699 20.8194 6.06699 15.3333C6.06699 9.8473 10.5143 5.4 16.0003 5.4C21.4864 5.4 25.9337 9.8473 25.9337 15.3333Z" stroke="black" stroke-width="2.8"/>
</svg>
