<svg width="46" height="37" viewBox="0 0 46 37" fill="none" xmlns="http://www.w3.org/2000/svg">
<path d="M0 18.3531C0 8.23349 8.33352 0 18.576 0L21.8198 0C24.7567 0 27.1429 2.35761 27.1429 5.25928C27.1429 8.16096 24.7567 10.5186 21.8198 10.5186H18.5577C14.189 10.5186 10.628 14.0368 10.628 18.3531C10.628 22.6693 14.189 26.1876 18.5577 26.1876H26.1055C29.0424 26.1876 31.4287 28.5452 31.4287 31.4469C31.4287 34.3486 29.0424 36.7062 26.1055 36.7062H18.5577C8.33352 36.7062 0 28.4727 0 18.3531Z" fill="#5A3FFF"/>
<path d="M35.7144 31.549C35.7144 28.7113 37.9529 26.4102 40.7144 26.4102C43.4758 26.4102 45.7144 28.7113 45.7144 31.549C45.7144 34.3867 43.4758 36.6879 40.7144 36.6879C37.9529 36.6879 35.7144 34.3867 35.7144 31.549Z" fill="#FF4651"/>
</svg>
