<svg width="20" height="20" viewBox="0 0 20 20" fill="none" xmlns="http://www.w3.org/2000/svg">
<path d="M9.2422 11.5H10.7578L11.2188 5H8.7812L9.2422 11.5ZM10 0C8.0222 0 6.08879 0.58649 4.4443 1.6853C2.79981 2.78412 1.51809 4.3459 0.761211 6.17317C0.00433075 8.0004 -0.193699 10.0111 0.192151 11.9509C0.578001 13.8907 1.53041 15.6725 2.92894 17.0711C4.32746 18.4696 6.10929 19.422 8.0491 19.8079C9.9889 20.1937 11.9996 19.9957 13.8268 19.2388C15.6541 18.4819 17.2159 17.2002 18.3147 15.5557C19.4135 13.9112 20 11.9778 20 10C20 8.6868 19.7413 7.38642 19.2388 6.17317C18.7363 4.95991 17.9997 3.85752 17.0711 2.92893C16.1425 2.00035 15.0401 1.26375 13.8268 0.7612C12.6136 0.25866 11.3132 0 10 0ZM10 18C8.4178 18 6.87104 17.5308 5.55544 16.6518C4.23985 15.7727 3.21447 14.5233 2.60897 13.0615C2.00347 11.5997 1.84504 9.9911 2.15372 8.4393C2.4624 6.88743 3.22433 5.46197 4.34315 4.34315C5.46197 3.22433 6.88743 2.4624 8.4393 2.15372C9.9911 1.84504 11.5997 2.00346 13.0615 2.60896C14.5233 3.21447 15.7727 4.23984 16.6518 5.55544C17.5308 6.87103 18 8.4177 18 10C17.9976 12.121 17.154 14.1544 15.6542 15.6542C14.1544 17.154 12.121 17.9976 10 18ZM10 12.85C9.7726 12.85 9.5502 12.9174 9.3611 13.0438C9.172 13.1702 9.0246 13.3498 8.9375 13.5599C8.8505 13.77 8.8277 14.0013 8.8721 14.2244C8.9165 14.4474 9.026 14.6523 9.1868 14.8132C9.3477 14.974 9.5526 15.0835 9.7757 15.1279C9.9987 15.1723 10.23 15.1495 10.4401 15.0625C10.6502 14.9754 10.8298 14.828 10.9562 14.6389C11.0826 14.4498 11.15 14.2274 11.15 14C11.15 13.695 11.0288 13.4025 10.8132 13.1868C10.5975 12.9712 10.305 12.85 10 12.85Z" fill="black"/>
</svg>
