<svg width="22" height="16" viewBox="0 0 22 16" fill="none" xmlns="http://www.w3.org/2000/svg">
<path d="M20.4604 7.79779L20.4613 7.8C20.4889 7.86308 20.5031 7.93117 20.5031 8C20.5031 8.06883 20.4889 8.13692 20.4613 8.2L20.4604 8.20221C18.4955 12.7641 14.8459 15.5 10.9996 15.5C7.15328 15.5 3.50363 12.7641 1.5388 8.20221L1.53784 8.2C1.5103 8.13692 1.49609 8.06883 1.49609 8C1.49609 7.93117 1.5103 7.86308 1.53784 7.8L1.53784 7.8L1.5388 7.79779C3.50363 3.23587 7.15328 0.5 10.9996 0.5C14.8459 0.5 18.4955 3.23587 20.4604 7.79779ZM2.64642 7.78869L2.54789 8L2.64642 8.21131C4.42905 12.0342 7.57401 14.5 10.9996 14.5C14.4251 14.5 17.5701 12.0342 19.3527 8.21131L19.4513 8L19.3527 7.78869C17.5701 3.96583 14.4251 1.5 10.9996 1.5C7.57401 1.5 4.42905 3.96583 2.64642 7.78869ZM9.05508 5.08986C9.63066 4.70527 10.3073 4.5 10.9996 4.5C11.9278 4.5 12.8181 4.86875 13.4745 5.52513C14.1308 6.1815 14.4996 7.07174 14.4996 8C14.4996 8.69223 14.2943 9.36892 13.9097 9.9445C13.5251 10.5201 12.9785 10.9687 12.339 11.2336C11.6994 11.4985 10.9957 11.5678 10.3168 11.4327C9.63783 11.2977 9.01419 10.9644 8.5247 10.4749C8.03522 9.98539 7.70188 9.36175 7.56683 8.68282C7.43178 8.00388 7.50109 7.30015 7.766 6.66061C8.03091 6.02107 8.47951 5.47444 9.05508 5.08986ZM9.61065 10.0787C10.0218 10.3534 10.5051 10.5 10.9996 10.5C11.6626 10.5 12.2985 10.2366 12.7673 9.76777C13.2362 9.29893 13.4996 8.66304 13.4996 8C13.4996 7.50555 13.353 7.0222 13.0783 6.61107C12.8035 6.19995 12.4131 5.87952 11.9563 5.6903C11.4995 5.50108 10.9968 5.45157 10.5119 5.54804C10.0269 5.6445 9.58144 5.8826 9.23181 6.23223C8.88218 6.58186 8.64408 7.02732 8.54762 7.51227C8.45115 7.99723 8.50066 8.49989 8.68988 8.95671C8.8791 9.41352 9.19953 9.80397 9.61065 10.0787Z" fill="#CACACA" stroke="#583EF7"/>
</svg>
